<?xml version="1.0" encoding="UTF-8"?>
<svg version="1.1" xmlns="http://www.w3.org/2000/svg" width="512" height="512">
<path d="M0 0 C4.04059053 3.51528565 5.96681688 6.53160801 7.76171875 11.55078125 C8.12652596 12.56764763 8.12652596 12.56764763 8.498703 13.60505676 C12.62495264 25.34482658 16.16329205 37.29370014 19.8125 49.1875 C20.57572279 51.66354993 21.33939243 54.13946217 22.10351562 56.61523438 C22.48168427 57.84138458 22.85985291 59.06753479 23.2494812 60.33084106 C24.01079692 62.79894381 24.77245281 65.26694167 25.53445435 67.73483276 C27.32178005 73.52925124 29.10167165 79.3254116 30.85315037 85.13075161 C31.66421886 87.81521911 32.48150877 90.49777095 33.29968834 93.18007851 C33.87342427 95.06950001 34.43862364 96.96150702 35.00361633 98.8535614 C35.35264511 99.99541397 35.70167389 101.13726654 36.0612793 102.3137207 C36.51557564 103.82008842 36.51557564 103.82008842 36.97904968 105.35688782 C37.99727804 107.99295318 39.19283097 109.8444885 41 112 C42.95238091 111.83271854 42.95238091 111.83271854 45 111 C46.23533384 109.09364416 46.23533384 109.09364416 47.01513672 106.66210938 C47.34592224 105.75291748 47.67670776 104.84372559 48.01751709 103.90698242 C48.34173645 102.94767822 48.66595581 101.98837402 49 101 C49.46191742 99.63742065 49.46191742 99.63742065 49.9331665 98.24731445 C50.90176722 95.30826249 51.83428887 92.35976732 52.7578125 89.40625 C53.27505638 87.76604889 53.27505638 87.76604889 53.80274963 86.0927124 C54.91413987 82.56304375 56.01954971 79.03153293 57.125 75.5 C57.89156273 73.0647408 58.65824634 70.62951965 59.42504883 68.19433594 C62.76109731 57.56991 66.06788867 46.94173158 69.12890625 36.234375 C69.35515686 35.44595215 69.58140747 34.6575293 69.81451416 33.84521484 C70.82510047 30.31197255 71.81785182 26.77530894 72.77978516 23.22851562 C75.22576428 14.53322566 77.99728183 5.11529237 86 0 C99.21923387 -2.56819453 110.18701564 5.90935984 120.875 12.5625 C129.78186056 18.05605882 138.74824722 23.42758061 147.81787109 28.64868164 C161.65266437 36.71528601 161.65266437 36.71528601 164 45 C164.28952493 51.91240765 162.08889968 56.55068235 157.52122116 61.65132523 C155.75598629 63.47500381 153.96116585 65.26349378 152.15185547 67.04345703 C151.47173401 67.72065796 150.79161255 68.39785889 150.09088135 69.09558105 C148.62097644 70.55790391 147.14876641 72.01791262 145.6744957 73.47583389 C143.3417164 75.78300398 141.0153144 78.09643656 138.69046021 80.41159058 C133.7575512 85.3216898 128.81684148 90.22389325 123.875 95.125 C118.1406329 100.81217295 112.40950618 106.50253245 106.68674088 112.20138168 C104.39407465 114.48107746 102.09547106 116.7546702 99.79660034 119.02810669 C98.39389075 120.42355237 96.99146055 121.81927896 95.58935547 123.21533203 C94.9482785 123.84607635 94.30720154 124.47682068 93.646698 125.12667847 C93.06073853 125.71249695 92.47477905 126.29831543 91.87106323 126.90188599 C91.36189802 127.40660997 90.85273281 127.91133396 90.32813835 128.43135262 C87.43568447 131.84759325 86.7535786 134.56441484 87 139 C91.68947115 139.12112727 95.8123205 138.78141885 100.37719727 137.71826172 C102.21321251 137.29684402 102.21321251 137.29684402 104.08631897 136.86691284 C105.41301812 136.5545188 106.73971378 136.24210992 108.06640625 135.9296875 C109.46408669 135.60696696 110.86195382 135.28505404 112.25999451 134.96389771 C115.95053342 134.11444622 119.63907923 133.25666634 123.3270874 132.39630127 C157.93437082 124.32583553 157.93437082 124.32583553 174.75178337 120.90701675 C176.6585665 120.51925694 178.56423504 120.12602877 180.46986389 119.7326355 C195.50606771 116.73381124 195.50606771 116.73381124 201.25 119.6875 C201.89453125 120.00074219 202.5390625 120.31398438 203.203125 120.63671875 C208.17497446 124.40883932 208.78874731 129.97669612 209.64245605 135.76635742 C210.20139863 140.82145773 210.28587531 145.82432864 210.265625 150.90625 C210.26753845 151.99280884 210.2694519 153.07936768 210.27142334 154.19885254 C210.27277386 156.47778558 210.26915745 158.75672662 210.26074219 161.03564453 C210.2500267 164.49138947 210.26067668 167.94661466 210.2734375 171.40234375 C210.2721157 173.63281363 210.2695529 175.86328319 210.265625 178.09375 C210.26967346 179.10973267 210.27372192 180.12571533 210.27789307 181.17248535 C210.2079997 192.05307354 209.68959196 201.40007333 202.4375 209.8125 C198.64286953 212.94719474 193.62536109 212.36310912 189 212 C184.28500004 211.2043701 179.64865541 210.12614863 174.99609375 209.02734375 C173.63016489 208.71130283 172.26415033 208.39563207 170.89805603 208.08030701 C154.12836315 204.18033235 137.47180176 199.81173779 120.81713867 195.45141602 C117.35998116 194.54684141 113.9004845 193.65172834 110.43939018 192.76234245 C108.52991254 192.26870803 106.62318683 191.76446655 104.71656799 191.25990295 C98.63978582 189.70103645 93.27726634 188.59575084 87 189 C87 192.25987835 87.48113289 194.38495265 89.6015625 196.8984375 C90.99162256 198.2562954 92.39758354 199.59800598 93.81640625 200.92578125 C95.87581601 202.88203631 97.72040731 204.90294916 99.5625 207.0625 C102.29687086 210.24329875 105.17394054 213.20033364 108.16821289 216.13500977 C109.88826747 217.8862422 111.47641529 219.69020452 113.0625 221.5625 C117.61626777 226.80053763 122.55979708 231.62967265 127.5 236.5 C132.99172295 241.91404653 138.37974829 247.32152702 143.39550781 253.18164062 C145.48287824 255.54724241 147.71532892 257.73042577 149.9855957 259.91894531 C163.07941403 272.546729 163.07941403 272.546729 163.5625 280.625 C163.26529356 285.06785531 161.99917584 287.62592719 159 291 C153.14782632 296.04606864 146.46138357 299.74105804 139.74179077 303.49261475 C136.63871287 305.22514864 133.54489658 306.97394716 130.453125 308.7265625 C129.51577766 309.25783249 129.51577766 309.25783249 128.55949402 309.79983521 C121.37882445 313.89141302 114.35403135 318.2353656 107.37280273 322.65820312 C99.76765266 327.39710473 93.99522745 330.03118039 85 328 C79.88196269 324.88020874 78.47624112 321.23793065 76.625 315.8125 C76.33028809 314.98153809 76.03557617 314.15057617 75.73193359 313.29443359 C73.07469361 305.61341541 70.89777297 297.80618519 68.76611328 289.96606445 C66.18849102 280.51264548 63.29049045 271.17599452 60.34301758 261.83227539 C57.82048947 253.78549149 55.51266196 245.70266676 53.3125 237.5625 C50.8954108 228.65835452 48.05297011 220.2989388 44 212 C41.5524338 212.1288267 41.5524338 212.1288267 39 213 C37.65334344 215.06077306 37.65334344 215.06077306 36.93823242 217.72949219 C36.61639984 218.73057007 36.29456726 219.73164795 35.96298218 220.76306152 C35.64519806 221.83125122 35.32741394 222.89944092 35 224 C34.51740219 225.55152771 34.51740219 225.55152771 34.02505493 227.13439941 C32.98479249 230.52455617 31.98279108 233.9242757 30.98828125 237.328125 C30.61838577 238.58416031 30.2484903 239.84019562 29.86738586 241.1342926 C29.08222677 243.80072667 28.29927913 246.46779573 27.51812744 249.13540649 C26.50806763 252.58449277 25.49407001 256.03240503 24.47861099 259.47990513 C20.9327097 271.51839905 17.39329862 283.55856125 13.95703125 295.62890625 C13.74675797 296.36497101 13.53648468 297.10103577 13.31983948 297.85940552 C12.41537459 301.02692913 11.51863699 304.19585933 10.63793945 307.37011719 C6.52719589 321.8573774 6.52719589 321.8573774 1.125 326.4375 C-4.99012695 329.49506348 -8.85757951 329.06895803 -15.19042969 327.0949707 C-20.28077938 325.1111144 -24.69828944 322.11094319 -29.25 319.125 C-31.36167202 317.76962495 -33.47499224 316.41681482 -35.58984375 315.06640625 C-36.65315918 314.38594238 -37.71647461 313.70547852 -38.81201172 313.00439453 C-43.74297769 309.90413181 -48.77581701 306.98656344 -53.8125 304.0625 C-74.81303487 291.74966986 -74.81303487 291.74966986 -78 284 C-78.43359375 281.65625 -78.43359375 281.65625 -78.4375 279.5 C-78.45683594 278.7884375 -78.47617188 278.076875 -78.49609375 277.34375 C-75.62525435 263.78072923 -55.60803086 249.53241905 -45.89770508 239.93432617 C-40.90574628 234.98909635 -35.97863751 230.04052459 -31.44458008 224.66333008 C-29.87349317 222.85433649 -28.2105948 221.1769413 -26.5 219.5 C-23.49448581 216.54113459 -20.71647125 213.44463329 -17.96484375 210.25 C-14.78767348 206.61172947 -11.50458406 203.07020007 -8.234375 199.515625 C-3.90429422 194.98550082 -3.90429422 194.98550082 -3 189 C-10.33683078 188.5777888 -16.79687482 190.15099052 -23.88671875 191.94140625 C-25.14820236 192.25300186 -26.40968597 192.56459747 -27.70939636 192.88563538 C-44.60126484 197.07643001 -61.41186191 201.60297346 -78.21850586 206.12133789 C-81.80290252 207.08455393 -85.38976218 208.03807097 -88.97836876 208.98547554 C-90.32083025 209.34185932 -91.66235054 209.70181093 -93.00281715 210.06562614 C-109.45613415 214.52872644 -109.45613415 214.52872644 -116.1875 211.625 C-121.83738885 206.3517704 -124.72614963 199.15934348 -125.13371277 191.48085022 C-125.13752457 190.59264084 -125.14133636 189.70443146 -125.14526367 188.78930664 C-125.15164352 187.77377213 -125.15802338 186.75823761 -125.16459656 185.71192932 C-125.16570938 184.62234421 -125.1668222 183.53275909 -125.16796875 182.41015625 C-125.17129715 181.27404404 -125.17462555 180.13793182 -125.17805481 178.96739197 C-125.18311497 176.56086633 -125.18546342 174.15433369 -125.18530273 171.74780273 C-125.18747339 168.10713737 -125.20559513 164.46678302 -125.22460938 160.82617188 C-125.30547521 128.16002674 -125.30547521 128.16002674 -119 120 C-113.21520526 116.31013661 -105.51807115 117.54461615 -99.08740234 118.86694336 C-97.41725444 119.26213525 -95.75013636 119.67030493 -94.0859375 120.08984375 C-93.16871414 120.30984543 -92.25149078 120.52984711 -91.30647278 120.7565155 C-89.3436085 121.22847942 -87.38204308 121.70587354 -85.42172241 122.18829346 C-80.20793765 123.47039308 -74.98393856 124.70982836 -69.76171875 125.95703125 C-68.70026138 126.21180237 -67.63880402 126.46657349 -66.54518127 126.72906494 C-56.66314887 129.09664743 -46.75845579 131.35337714 -36.83502197 133.54055786 C-35.08767884 133.92628496 -33.34087823 134.31447898 -31.59466553 134.70529175 C-18.91630004 138.02578386 -18.91630004 138.02578386 -6 139 C-5.01 138.34 -4.02 137.68 -3 137 C-4.51749204 128.74412067 -13.48715166 122.46947533 -19.23925781 116.77954102 C-22.67401581 113.36996597 -25.91412699 109.88044993 -29.03515625 106.1796875 C-32.42769356 102.4161968 -36.08953713 98.9086859 -39.734375 95.390625 C-41.19251877 93.96321494 -42.60091568 92.48534366 -44 91 C-44 90.34 -44 89.68 -44 89 C-45.485 88.505 -45.485 88.505 -47 88 C-48.52539063 86.44897461 -48.52539063 86.44897461 -50.15625 84.46484375 C-54.68237778 79.12929028 -59.66629095 74.31256647 -64.68359375 69.44335938 C-78.42158457 55.91653116 -78.42158457 55.91653116 -79.375 47.8125 C-78.87191302 42.69778236 -77.3738361 39.82910397 -74 36 C-71.72851563 34.33520508 -71.72851563 34.33520508 -69.09375 32.70703125 C-68.11494873 32.10197754 -67.13614746 31.49692383 -66.12768555 30.87353516 C-60.89628121 27.73983779 -55.61237712 24.7035718 -50.3125 21.6875 C-42.12463321 17.00249808 -33.99225597 12.2716987 -26.0715332 7.14526367 C-18.29493599 2.15135373 -9.49672322 -3.41738146 0 0 Z M20.30859375 143.11328125 C14.76428375 151.06235222 12.67375353 158.28201705 14 168 C17.268204 177.63015272 22.28271958 183.71365285 31.1875 188.375 C37.82017864 191.08013685 45.35085001 191.08368018 52.1875 189 C58.69480698 186.11993929 65.10411369 180.45978435 68.28515625 174.0390625 C70.95137618 166.43377942 72.108901 158.59342192 69 151 C65.25176518 143.65051996 60.18852117 138.12038636 52.4765625 134.96875 C40.86523582 131.20291432 28.24814546 133.19342566 20.30859375 143.11328125 Z " fill="#2CBA5C" transform="translate(214,96)"/>
<path d="M0 0 C2.49361571 1.20381448 4.68143083 2.45428722 7 4 C7 4.66 7 5.32 7 6 C7.66 6 8.32 6 9 6 C10.37310707 7.29233607 11.71034824 8.62437146 13 10 C12.67 10.99 12.34 11.98 12 13 C7.82556637 9.49925018 3.6854506 6.02049157 0 2 C0 1.34 0 0.68 0 0 Z " fill="#49BF67" transform="translate(144,158)"/>
<path d="M0 0 C3.87511727 0.54984772 5.59576506 2.27555331 8.25 5.0625 C8.95640625 5.79597656 9.6628125 6.52945313 10.390625 7.28515625 C10.92171875 7.85105469 11.4528125 8.41695312 12 9 C11.34 9.66 10.68 10.32 10 11 C8.33035479 9.35718838 6.6643536 7.71067239 5 6.0625 C4.071875 5.14597656 3.14375 4.22945312 2.1875 3.28515625 C0 1 0 1 0 0 Z " fill="#5EC778" transform="translate(198,215)"/>
<path d="M0 0 C3.21524305 1.40844718 5.32183868 3.10344786 7.75 5.625 C8.67039062 6.57246094 8.67039062 6.57246094 9.609375 7.5390625 C10.29773438 8.26222656 10.29773438 8.26222656 11 9 C10.34 9.66 9.68 10.32 9 11 C7.49403892 9.54782324 5.99537896 8.08807139 4.5 6.625 C3.6646875 5.81289063 2.829375 5.00078125 1.96875 4.1640625 C0 2 0 2 0 0 Z " fill="#53C36F" transform="translate(357,351)"/>
<path d="M0 0 C3.21043882 1.38188453 5.04936365 2.92421903 7.25 5.625 C8.03117187 6.57246094 8.03117187 6.57246094 8.828125 7.5390625 C9.40820312 8.26222656 9.40820312 8.26222656 10 9 C7 9 7 9 5.17578125 7.5390625 C4.56089844 6.90742188 3.94601562 6.27578125 3.3125 5.625 C2.68988281 4.99851562 2.06726563 4.37203125 1.42578125 3.7265625 C0 2 0 2 0 0 Z " fill="#57C572" transform="translate(335,328)"/>
<path d="M0 0 C0.66 0.66 1.32 1.32 2 2 C1.01 2.33 0.02 2.66 -1 3 C-1.33 2.67 -1.66 2.34 -2 2 C-4.35313555 1.92728259 -6.70833668 1.91629132 -9.0625 1.9375 C-10.35285156 1.94652344 -11.64320313 1.95554687 -12.97265625 1.96484375 C-13.97167969 1.97644531 -14.97070312 1.98804687 -16 2 C-10.59332536 -1.60444976 -6.17774499 -1.11401959 0 0 Z " fill="#5DC77A" transform="translate(214,96)"/>
<path d="M0 0 C-4.79482068 2.75702189 -8.58609132 3.53328373 -14 4 C-13.01 3.67 -12.02 3.34 -11 3 C-11 2.34 -11 1.68 -11 1 C-3.375 -1.125 -3.375 -1.125 0 0 Z " fill="#61C97E" transform="translate(169,292)"/>
<path d="M0 0 C1.32 0.33 2.64 0.66 4 1 C2.37829621 2.00533667 0.75252763 3.00411907 -0.875 4 C-2.23238281 4.8353125 -2.23238281 4.8353125 -3.6171875 5.6875 C-6 7 -6 7 -8 7 C-7.67 6.01 -7.34 5.02 -7 4 C-5.68 4 -4.36 4 -3 4 C-3 3.34 -3 2.68 -3 2 C-2.01 2 -1.02 2 0 2 C0 1.34 0 0.68 0 0 Z " fill="#7BD090" transform="translate(338,405)"/>
<path d="M0 0 C0.99 0.33 1.98 0.66 3 1 C0.69 3.31 -1.62 5.62 -4 8 C-4.66 7.34 -5.32 6.68 -6 6 C-4.02 4.02 -2.04 2.04 0 0 Z " fill="#62C87C" transform="translate(326,199)"/>
<path d="M0 0 C0.66 0.33 1.32 0.66 2 1 C0.35 2.98 -1.3 4.96 -3 7 C-3.99 6.67 -4.98 6.34 -6 6 C-4 4 -2 2 0 0 Z " fill="#3EBE65" transform="translate(143,130)"/>
<path d="M0 0 C0.80824219 0.11085938 1.61648438 0.22171875 2.44921875 0.3359375 C3.37154297 0.47902344 3.37154297 0.47902344 4.3125 0.625 C-0.06758443 3.20964442 -2.79875113 2.43979148 -7.6875 1.625 C-4.33422361 -0.61051759 -3.78006343 -0.54783528 0 0 Z " fill="#7FD295" transform="translate(306.6875,422.375)"/>
<path d="M0 0 C0.99 0.33 1.98 0.66 3 1 C0.69 3.31 -1.62 5.62 -4 8 C-4.33 7.01 -4.66 6.02 -5 5 C-3.35 3.35 -1.7 1.7 0 0 Z " fill="#60C779" transform="translate(318,207)"/>
<path d="M0 0 C0.67520573 2.02561719 1.29928942 4.06889078 1.875 6.125 C2.24625 7.07375 2.6175 8.0225 3 9 C3.99 9.33 4.98 9.66 6 10 C5.34 10.66 4.68 11.32 4 12 C3.13058506 10.76055724 2.27994543 9.50792941 1.4375 8.25 C0.96183594 7.55390625 0.48617187 6.8578125 -0.00390625 6.140625 C-1 4 -1 4 -0.65234375 1.734375 C-0.43707031 1.16203125 -0.22179687 0.5896875 0 0 Z " fill="#4EC06C" transform="translate(92,294)"/>
<path d="M0 0 C3.25543229 0.34879632 4.01873107 1.02133261 6.25 3.5625 C6.8275 4.366875 7.405 5.17125 8 6 C5 6 5 6 3.61328125 4.6875 C2.40885417 3.125 1.20442708 1.5625 0 0 Z " fill="#60C779" transform="translate(175,191)"/>
<path d="M0 0 C1.25541557 3.76624671 0.37061958 5.37188934 -1 9 C-1.66 9 -2.32 9 -3 9 C-2.67 6.69 -2.34 4.38 -2 2 C-1.34 2 -0.68 2 0 2 C0 1.34 0 0.68 0 0 Z " fill="#6DCD85" transform="translate(223,403)"/>
<path d="M0 0 C3.36720387 1.39332574 4.9859524 2.9789286 7 6 C4 6 4 6 1.8125 4.125 C0 2 0 2 0 0 Z " fill="#55C471" transform="translate(316,308)"/>
</svg>
